<svg id="Capa_1" data-name="Capa 1" xmlns="http://www.w3.org/2000/svg" viewBox="0 0 442.98 291.75"><defs><style>.cls-1,.cls-10,.cls-2,.cls-8{fill:none;stroke-miterlimit:10;}.cls-1,.cls-10,.cls-2{stroke:#c97e7f;}.cls-1,.cls-2{stroke-linecap:round;stroke-width:2px;}.cls-1{stroke-dasharray:7.07 9.09;}.cls-2{stroke-dasharray:7.04 9.05;}.cls-3{fill:#d8e2dc;}.cls-4,.cls-6,.cls-9{fill:#c97e7f;}.cls-5{fill:#fff;}.cls-6{opacity:0.4;}.cls-7{fill:#cb997e;}.cls-8{stroke:#d8e2dc;}.cls-10,.cls-9{opacity:0.5;}</style></defs><path class="cls-1" d="M59.7,174a95.2,95.2,0,0,1,95.2-95.2c126.28,5,126.25,185.4,0,190.4A95.2,95.2,0,0,1,59.7,174Z"/><path class="cls-2" d="M262.92,79.21A69.11,69.11,0,0,1,332,10.1c91.67,3.64,91.65,134.59,0,138.22a69.11,69.11,0,0,1-69.11-69.11Z"/><path class="cls-3" d="M342.94,62.41H227.3V50.58a6.24,6.24,0,0,0-6.24-6.24H156.89a6.24,6.24,0,0,0-6.24,6.24V68.64h0V224.79a6.23,6.23,0,0,0,6.24,6.23H342.94a6.23,6.23,0,0,0,6.23-6.23V68.65A6.23,6.23,0,0,0,342.94,62.41Z"/><path class="cls-4" d="M342.94,232.19h-186a7.41,7.41,0,0,1-7.4-7.4V50.58a7.41,7.41,0,0,1,7.4-7.4h64.17a7.41,7.41,0,0,1,7.4,7.4V61.25H342.94a7.41,7.41,0,0,1,7.4,7.4V224.79A7.41,7.41,0,0,1,342.94,232.19ZM151.82,68.65V224.79a5.07,5.07,0,0,0,5.07,5.07H342.94a5.07,5.07,0,0,0,5.07-5.07V68.65a5.07,5.07,0,0,0-5.07-5.07H227.3a1.17,1.17,0,0,1-1.17-1.17V50.58a5.07,5.07,0,0,0-5.07-5.07H156.89a5.07,5.07,0,0,0-5.07,5.07V68.64Z"/><path class="cls-5" d="M150.65,78.49v146.3a6.23,6.23,0,0,0,6.24,6.23H342.94a6.23,6.23,0,0,0,6.23-6.23V78.49Z"/><path class="cls-4" d="M342.94,232.19h-186a7.41,7.41,0,0,1-7.4-7.4V77.33H350.34V224.79A7.41,7.41,0,0,1,342.94,232.19ZM151.82,79.65V224.79a5.07,5.07,0,0,0,5.07,5.07H342.94a5.07,5.07,0,0,0,5.07-5.07V79.65Z"/><path class="cls-6" d="M267.85,158.7l32.22,7.11-1.54,15-3.75,6.86-8.1,4.24H279c-.29,0-6.83-3.74-6.83-3.74l-3.44-6.86-.87-7.61Z"/><path class="cls-4" d="M210.16,134.59a1.26,1.26,0,0,1-1.79,0L191.5,117.73a1.27,1.27,0,0,1,0-1.79h0a1.26,1.26,0,0,1,1.79,0l16.87,16.87a1.26,1.26,0,0,1,0,1.78Z"/><path class="cls-4" d="M191.5,134.59a1.26,1.26,0,0,1,0-1.78l16.87-16.87a1.26,1.26,0,0,1,1.79,0h0a1.27,1.27,0,0,1,0,1.79l-16.87,16.86a1.26,1.26,0,0,1-1.79,0Z"/><path class="cls-4" d="M304.34,134.59a1.26,1.26,0,0,1-1.79,0l-16.87-16.86a1.27,1.27,0,0,1,0-1.79h0a1.26,1.26,0,0,1,1.79,0l16.87,16.87a1.24,1.24,0,0,1,0,1.78Z"/><path class="cls-4" d="M285.68,134.59a1.26,1.26,0,0,1,0-1.78l16.87-16.87a1.26,1.26,0,0,1,1.79,0h0a1.26,1.26,0,0,1,0,1.79l-16.87,16.86a1.26,1.26,0,0,1-1.79,0Z"/><path class="cls-4" d="M309,170.36a1.23,1.23,0,0,1-.49-.1,154.77,154.77,0,0,0-114.36,0,1.33,1.33,0,0,1-1-2.47,157.92,157.92,0,0,1,116.32,0,1.33,1.33,0,0,1-.49,2.57Z"/><path class="cls-4" d="M283.17,193.74a17,17,0,0,1-17-17V159.25a1.33,1.33,0,1,1,2.66,0v17.48a14.35,14.35,0,0,0,28.69,0v-11a1.33,1.33,0,0,1,2.66,0v11A17,17,0,0,1,283.17,193.74Z"/><path class="cls-4" d="M283.17,181.9a1.33,1.33,0,0,1-1.33-1.33V161.63a1.33,1.33,0,0,1,2.66,0v18.94A1.34,1.34,0,0,1,283.17,181.9Z"/><path class="cls-7" d="M168.49,70.71a10.65,10.65,0,1,1,10.64-10.64A10.65,10.65,0,0,1,168.49,70.71Zm0-18.35a7.71,7.71,0,1,0,7.71,7.71A7.71,7.71,0,0,0,168.49,52.36Z"/><path class="cls-7" d="M170.88,55.44,168.36,58l-2.51-2.51a1.61,1.61,0,1,0-2.28,2.28l2.51,2.51-2.51,2.52A1.61,1.61,0,1,0,165.85,65l2.51-2.52L170.88,65a1.61,1.61,0,0,0,2.28-2.28l-2.52-2.52,2.52-2.51a1.61,1.61,0,0,0-2.28-2.28Z"/><path class="cls-3" d="M111.52,21.13A12.06,12.06,0,0,0,103.75,24a16.24,16.24,0,0,0-31.42,2.39A9.79,9.79,0,0,0,69.66,26,9.68,9.68,0,0,0,68.4,45.25v.09h43.12a12.11,12.11,0,0,0,0-24.21Z"/><path class="cls-8" d="M428,197.16a14.49,14.49,0,0,0-9.3,3.38,19.43,19.43,0,0,0-37.6,2.87,11.23,11.23,0,0,0-3.19-.46A11.58,11.58,0,0,0,376.4,226v.11H428a14.49,14.49,0,0,0,0-29Z"/><path class="cls-3" d="M301.48,256.44a6.57,6.57,0,0,0-4.23,1.54,8.83,8.83,0,0,0-17.09,1.3,5.35,5.35,0,0,0-1.45-.21,5.27,5.27,0,0,0-.69,10.49v.05h23.46a6.59,6.59,0,0,0,0-13.17Z"/><path class="cls-3" d="M435.9,4.71a6.57,6.57,0,0,0-4.23,1.54,8.83,8.83,0,0,0-17.09,1.3,5.35,5.35,0,0,0-1.45-.21,5.27,5.27,0,0,0-.69,10.49v.05H435.9a6.59,6.59,0,0,0,0-13.17Z"/><path class="cls-9" d="M195.1,17.55a8.78,8.78,0,1,1,8.78-8.77A8.78,8.78,0,0,1,195.1,17.55Zm0-13.37a4.6,4.6,0,1,0,4.6,4.6A4.6,4.6,0,0,0,195.1,4.18Z"/><path class="cls-9" d="M17.52,130.15a8.78,8.78,0,1,1,8.77-8.78A8.79,8.79,0,0,1,17.52,130.15Zm0-13.38a4.6,4.6,0,1,0,4.59,4.6A4.6,4.6,0,0,0,17.52,116.77Z"/><path class="cls-9" d="M423,143.39A18.36,18.36,0,1,1,441.39,125,18.38,18.38,0,0,1,423,143.39Zm0-28a9.62,9.62,0,1,0,9.62,9.62A9.64,9.64,0,0,0,423,115.41Z"/><path class="cls-10" d="M109.05,203.38a21.6,21.6,0,1,1,21.6-21.6A21.62,21.62,0,0,1,109.05,203.38Zm0-32.91a11.31,11.31,0,1,0,11.31,11.31A11.33,11.33,0,0,0,109.05,170.47Z"/><path class="cls-10" d="M22.09,291.25a21.59,21.59,0,1,1,21.59-21.59A21.61,21.61,0,0,1,22.09,291.25Zm0-32.9A11.31,11.31,0,1,0,33.4,269.66,11.33,11.33,0,0,0,22.09,258.35Z"/></svg>