<?xml version="1.0" encoding="utf-8"?>
<!-- Generator: Adobe Illustrator 26.0.1, SVG Export Plug-In . SVG Version: 6.00 Build 0)  -->
<svg version="1.1" id="Capa_1" xmlns="http://www.w3.org/2000/svg" xmlns:xlink="http://www.w3.org/1999/xlink" x="0px" y="0px"
	 viewBox="0 0 192.4 185.6" style="enable-background:new 0 0 192.4 185.6;" xml:space="preserve">
<style type="text/css">
	.st0{fill:#FFE8D6;}
	.st1{fill:#C97E7F;}
	.st2{font-family:'PlayfairDisplay-Bold';}
	.st3{font-size:141.3042px;}
	.st4{fill:#CB997E;}
</style>
<path class="st0" d="M95.9,12.7c-46.4,0-84.1,37.6-84.1,84.1c0,15.8,4.4,30.7,12,43.3c-2,10.6-7.7,27-23.9,33.7
	c0,0,30.6,3.3,50.5-6.2c13.1,8.4,28.7,13.4,45.5,13.4c46.4,0,84.1-37.6,84.1-84.1C180,50.3,142.4,12.7,95.9,12.7z"/>
<text transform="matrix(1 0 0 1 49.5332 123.5209)" class="st1 st2 st3">¿?</text>
<path class="st4" d="M4.5,22.5C15,18.3,14.8,8.7,16.5,0c1.9,8.6,1.5,18.2,12.2,22.5c-4.8,1.5-7.8,4.6-9.2,9
	c-1.3,4.2-2.1,8.6-3.1,12.8C14.7,36.1,15,26.5,4.5,22.5z"/>
<path class="st4" d="M176.3,164.5c0.9,4.2,1.3,8.2,5.8,10.3c-4.3,2.2-5.1,6.1-5.8,10.8c-1.4-4.4-1.6-8.8-6-10.6
	C173.4,172.8,173.4,172.8,176.3,164.5z"/>
</svg>
